<?xml version="1.0" encoding="UTF-8" standalone="no"?>
<!-- Created with Inkscape (http://www.inkscape.org/) -->

<svg
   xmlns:dc="http://purl.org/dc/elements/1.1/"
   xmlns:cc="http://creativecommons.org/ns#"
   xmlns:rdf="http://www.w3.org/1999/02/22-rdf-syntax-ns#"
   xmlns:svg="http://www.w3.org/2000/svg"
   xmlns="http://www.w3.org/2000/svg"
   xmlns:xlink="http://www.w3.org/1999/xlink"
   xmlns:sodipodi="http://sodipodi.sourceforge.net/DTD/sodipodi-0.dtd"
   xmlns:inkscape="http://www.inkscape.org/namespaces/inkscape"
   width="2556"
   height="1440"
   viewBox="0 0 2556 1440"
   id="svg4862"
   version="1.1"
   inkscape:version="0.91 r13725"
   inkscape:export-filename="/home/gabmus/Immagini/archmatWallpaper.png"
   inkscape:export-xdpi="90"
   inkscape:export-ydpi="90"
   sodipodi:docname="archMatWp.svg">
  <defs
     id="defs4864">
    <linearGradient
       inkscape:collect="always"
       xlink:href="#linearGradient4854"
       id="linearGradient4860"
       x1="406.35077"
       y1="282.121"
       x2="406.35077"
       y2="761.76904"
       gradientUnits="userSpaceOnUse"
       gradientTransform="matrix(1.8680216,0,0,1.8680216,-487.99538,-440.66956)" />
    <linearGradient
       inkscape:collect="always"
       id="linearGradient4854">
      <stop
         style="stop-color:#263238;stop-opacity:1;"
         offset="0"
         id="stop4856" />
      <stop
         style="stop-color:#263238;stop-opacity:0;"
         offset="1"
         id="stop4858" />
    </linearGradient>
    <filter
       height="1.1071963"
       y="-0.053598136"
       width="1.1088159"
       x="-0.054407936"
       id="filter5235"
       style="color-interpolation-filters:sRGB"
       inkscape:collect="always">
      <feGaussianBlur
         id="feGaussianBlur5237"
         stdDeviation="4.3159509"
         inkscape:collect="always" />
    </filter>
  </defs>
  <sodipodi:namedview
     id="base"
     pagecolor="#ffffff"
     bordercolor="#666666"
     borderopacity="1.0"
     inkscape:pageopacity="0.0"
     inkscape:pageshadow="2"
     inkscape:zoom="0.49497475"
     inkscape:cx="1219.8284"
     inkscape:cy="420.41551"
     inkscape:document-units="px"
     inkscape:current-layer="layer1"
     showgrid="false"
     units="px"
     inkscape:snap-object-midpoints="true"
     inkscape:snap-center="true"
     inkscape:window-width="2560"
     inkscape:window-height="1382"
     inkscape:window-x="0"
     inkscape:window-y="27"
     inkscape:window-maximized="1" />
  <metadata
     id="metadata4867">
    <rdf:RDF>
      <cc:Work
         rdf:about="">
        <dc:format>image/svg+xml</dc:format>
        <dc:type
           rdf:resource="http://purl.org/dc/dcmitype/StillImage" />
        <dc:title></dc:title>
      </cc:Work>
    </rdf:RDF>
  </metadata>
  <g
     inkscape:label="Livello 1"
     inkscape:groupmode="layer"
     id="layer1"
     transform="translate(0,387.63786)">
    <rect
       style="opacity:1;fill:#1793d1;fill-opacity:1;stroke:none;stroke-width:5.3210001;stroke-miterlimit:4;stroke-dasharray:none;stroke-opacity:1"
       id="rect5504"
       width="2560"
       height="1440"
       x="0"
       y="-387.63782" />
    <g
       id="g5506"
       transform="translate(1002.8318,440.14524)">
      <path
         id="path4650"
         transform="translate(0,-387.63786)"
         d="m 277.13477,84.404297 c -15.83212,39.395183 -25.3808,65.164583 -43.00782,103.388673 1.4235,1.53143 2.89978,3.1018 4.42188,4.69922 0.57804,0.60669 1.1922,1.22957 1.78711,1.8457 1.04988,1.08735 2.11006,2.18224 3.21875,3.29883 0.25433,0.25614 0.48255,0.49624 0.74023,0.7539 L 269.75,223.8457 c -2.06422,-0.95249 -4.11373,-1.90487 -6.04883,-2.85937 -14.76811,-7.2845 -25.87143,-14.6352 -34.72656,-22.19336 -22.55915,47.7754 -57.90303,115.82549 -129.626954,246.62109 l 144.796874,144.79883 140,140 115.20313,115.20117 24.79687,24.79883 120,120 20,20.00001 120,120 15.20313,15.2012 4.79687,4.7988 120,120 20,20 119.99997,120 135.2032,135.2012 4.7968,4.7988 139.9981,140 a 319.81598,324.58663 0 0 0 33.0234,1.7871 319.81598,324.58663 0 0 0 298.4863,-209.0762 l -140,-140 -140,-140 -18.5195,-18.5195 -101.4785,-101.4785 0,0 -20.002,-20 -119.998,-119.99997 -20.002,-20 -119.998,-120 -18.51953,-18.51953 -1.48243,-1.48047 -119.99804,-120 -140,-140 L 677.13477,484.40625 575.6543,382.92383 277.13477,84.404297 Z"
         style="opacity:0.2;fill:url(#linearGradient4860);fill-opacity:1;fill-rule:evenodd;stroke:none"
         inkscape:connector-curvature="0" />
      <path
         transform="matrix(1.8680216,0,0,1.8680216,-487.99538,-828.30742)"
         inkscape:connector-curvature="0"
         style="opacity:0.2;fill:#263238;fill-opacity:1;fill-rule:evenodd;stroke:none;filter:url(#filter5235)"
         id="path5049"
         d="m 409.59392,289.08609 c -8.47534,21.08925 -13.58724,34.88409 -23.02344,55.34643 5.78557,6.22418 12.88706,13.47254 24.41989,21.65888 -12.39891,-5.17818 -20.85647,-10.37696 -27.17698,-15.77173 -12.07649,25.5754 -30.99692,62.00642 -69.39258,132.02467 30.17769,-17.68199 53.5709,-28.58312 75.37224,-32.7427 -0.93615,-4.08646 -1.46839,-8.50677 -1.43225,-13.11888 l 0.0356,-0.98119 c 0.47885,-19.62244 10.53642,-34.71211 22.45054,-33.68754 11.91415,1.02453 21.17489,17.7718 20.69603,37.39425 -0.09,3.69233 -0.50041,7.24429 -1.21741,10.53872 21.56464,4.28135 44.70771,15.15457 74.47708,32.59734 -5.86994,-10.96817 -11.10937,-20.85519 -16.11284,-30.27155 -7.88125,-6.19962 -16.10181,-14.26846 -32.87017,-23.00348 11.52561,3.03951 19.77779,6.54631 26.2102,10.46605 -50.87154,-96.12688 -54.99105,-108.90014 -72.43605,-150.44927 z" />
      <path
         d="m 277.13491,-303.23214 c -15.83212,39.39517 -25.38126,65.16423 -43.00828,103.38833 10.80757,11.6269 24.0733,25.16699 45.61688,40.45925 -23.16143,-9.67295 -38.96034,-19.38438 -50.76719,-29.46193 C 206.41718,-141.07109 171.07341,-73.017158 99.349485,57.778445 155.72206,24.748106 199.42108,4.3845597 240.14646,-3.3856256 238.39771,-11.019221 237.40347,-19.276456 237.47098,-27.891977 l 0.0665,-1.832884 c 0.89451,-36.655142 19.68226,-64.842971 41.9381,-62.929052 22.25589,1.913844 39.55515,33.198106 38.66063,69.853266 -0.16812,6.897353 -0.93478,13.5324906 -2.27415,19.686557 40.28321,7.9976543 83.51497,28.309064 139.1248,60.892535 C 444.02168,37.289667 434.23431,18.8205 424.88772,1.230536 c -14.72234,-11.581024 -30.07853,-26.653792 -61.40219,-42.970998 21.53009,5.677871 36.94534,12.228649 48.96122,19.550808 C 317.41762,-201.75674 309.72229,-225.61747 277.13465,-303.23214 Z"
         id="path2518"
         style="fill:#ffffff;fill-opacity:1;fill-rule:evenodd;stroke:none"
         inkscape:connector-curvature="0" />
      <path
         style="opacity:0.2;fill:#263238;fill-opacity:1;fill-rule:evenodd;stroke:none"
         d="m 235.26844,-202.36641 c -0.39418,0.85996 -0.73957,1.64847 -1.14198,2.5211 8.58128,9.23184 18.78596,19.6893 33.37994,31.25288 3.85916,1.82495 7.87898,3.64901 12.237,5.46906 -20.80769,-14.7699 -33.86781,-27.88722 -44.47496,-39.24304 z m 42.12898,105.882529 c -21.33671,-0.05193 -38.99672,27.510523 -39.86328,63.020194 l -0.0658,1.835181 c -0.007,1.025544 0.004,2.042476 0.0256,3.057429 l 0.0402,-1.156567 c 0.8945,-36.655142 19.68344,-64.842897 41.93927,-62.928978 21.32356,1.833669 38.08543,30.634116 38.66659,65.282255 0.61268,-36.292428 -16.58067,-67.119081 -38.66659,-69.018298 -0.69548,-0.05978 -1.3877,-0.08948 -2.07599,-0.09116 z m 86.08589,51.005751 c 5.09639,2.654832 9.73322,5.272267 14.05029,7.851519 14.44388,4.663198 25.69488,9.819872 34.91231,15.436733 -1.00294,-1.895146 -1.85857,-3.524471 -2.84217,-5.38517 -11.59431,-6.656359 -26.2277,-12.657023 -46.12043,-17.903082 z M 239.4277,-6.9757203 C 199.63596,0.75364874 156.92854,20.506203 102.33608,52.308411 101.2904,54.216913 100.40953,55.841643 99.347971,57.777493 155.72055,24.747153 199.42108,4.3845597 240.14646,-3.3856256 239.87757,-4.5593409 239.6598,-5.7734989 239.4277,-6.9757203 Z m 77.11791,0.2736278 c -0.21355,1.2068354 -0.43054,2.4130917 -0.6859,3.5864521 40.28321,7.9976542 83.51399,28.3096614 139.12382,60.8931334 -1.0477,-1.957668 -1.84816,-3.481619 -2.875,-5.403402 C 398.20455,20.963158 355.93008,1.2465636 316.54561,-6.7020925 Z"
         id="path4225"
         inkscape:connector-curvature="0" />
    </g>
  </g>
</svg>
